<svg class="svg-icon" style="width: 1em; height: 1em;vertical-align: middle;fill: currentColor;overflow: hidden;" viewBox="0 0 1024 1024" version="1.1" xmlns="http://www.w3.org/2000/svg"><path d="M512 85.333333a426.666667 426.666667 0 1 0 426.666667 426.666667A426.666667 426.666667 0 0 0 512 85.333333z m170.666667 448a21.333333 21.333333 0 0 1-21.333334 21.333334H554.666667v106.666666a21.333333 21.333333 0 0 1-21.333334 21.333334h-42.666666a21.333333 21.333333 0 0 1-21.333334-21.333334V554.666667H362.666667a21.333333 21.333333 0 0 1-21.333334-21.333334v-42.666666a21.333333 21.333333 0 0 1 21.333334-21.333334H469.333333V362.666667a21.333333 21.333333 0 0 1 21.333334-21.333334h42.666666a21.333333 21.333333 0 0 1 21.333334 21.333334V469.333333h106.666666a21.333333 21.333333 0 0 1 21.333334 21.333334z"  /></svg>